# xmcd
#
# Track frame offsets:
#	150
#	18463
#	34054
#	52153
#	68813
#	87653
#	101174
#	120648
#
# Disc length: 1770 seconds
#
# Revision: 1
# Processed by: cddbd v1.5.2PL0 Copyright (c) Steve Scherf et al.
# Submitted via: EasyCDDAExtractor 2010.4.0.0
#
DISCID=6f06e808
DTITLE=Various Artist - Turkce Pop 120
DYEAR=2012
DGENRE=Turkce Pop
TTITLE0=A. Güngör and F. Göçer  - Kalp Kanbe Karsi
TTITLE1=Sezen Aksu - Seni Kimler Aldi
TTITLE2=Kenan Doğulu - Askim Askim
TTITLE3=Ferhat Göçer - Asklarin En Guzeli
TTITLE4=Ajda Pekkan - Yok ki
TTITLE5=Burak Kut - Tatili Bos Ver
TTITLE6=Yeliz - Agla Kalbim
TTITLE7=Sefarad - Aman Aman
EXTD=YEAR: 2007\n
EXTT0=
EXTT1=
EXTT2=
EXTT3=
EXTT4=
EXTT5=
EXTT6=
EXTT7=
PLAYORDER=
